<?xml version="1.0" encoding="UTF-8"?>
<svg width="145px" height="137px" viewBox="0 0 145 137" version="1.1" xmlns="http://www.w3.org/2000/svg" xmlns:xlink="http://www.w3.org/1999/xlink">
    <!-- Generator: Sketch 52.6 (67491) - http://www.bohemiancoding.com/sketch -->
    <title>ChainX2</title>
    <desc>Created with Sketch.</desc>
    <defs>
        <polygon id="path-1" points="0.49995 0 57.48745 0 57.48745 57.0097 0.49995 57.0097"></polygon>
        <polygon id="path-3" points="0.315557646 0.9014 29 0.9014 29 33.3274 0.315557646 33.3274"></polygon>
    </defs>
    <g id="Page-1" stroke="none" stroke-width="1" fill="none" fill-rule="evenodd">
        <g id="ChainX" transform="translate(-575.000000, -66.000000)">
            <g id="ChainX2" transform="translate(575.000000, 66.000000)">
                <g id="Group-3" transform="translate(27.000000, 0.000000)">
                    <mask id="mask-2" fill="white">
                        <use xlink:href="#path-1"></use>
                    </mask>
                    <g id="Clip-2"></g>
                    <path d="M52.1572,25.9302 L37.8822,11.6492 C37.5972,11.3652 37.1362,11.3652 36.8522,11.6492 L31.1902,17.3132 C30.9062,17.5972 30.9062,18.0592 31.1902,18.3432 L45.3252,32.4842 C48.7812,35.9402 48.8722,41.6902 45.3592,45.0882 C41.9452,48.3892 36.4822,48.3552 33.1122,44.9832 L12.5222,24.3852 C9.1512,21.0132 9.1162,15.5492 12.4172,12.1332 C15.8142,8.6182 21.5612,8.7102 25.0162,12.1672 L27.0722,14.2232 C27.3562,14.5082 27.8172,14.5082 28.1012,14.2232 L33.7632,8.5592 C34.0482,8.2752 34.0482,7.8142 33.7632,7.5302 L31.5672,5.3322 C24.4602,-1.7778 12.9372,-1.7778 5.8302,5.3322 C-1.2768,12.4422 -1.2768,23.9702 5.8302,31.0792 L26.4202,51.6772 C33.5272,58.7872 45.0502,58.7872 52.1572,51.6772 C59.2642,44.5672 59.2642,33.0402 52.1572,25.9302" id="Fill-1" fill="#EA754B" mask="url(#mask-2)"></path>
                </g>
                <path d="M112.1704,5.3335 C105.0614,-1.7775 93.5384,-1.7775 86.4334,5.3335 L72.5004,19.2715 L79.1574,25.9315 L79.1904,25.9645 L93.1234,12.0255 C96.5304,8.6215 102.0734,8.6215 105.4764,12.0255 C108.8834,15.4345 108.8834,20.9795 105.4764,24.3885 L103.2834,26.5815 C102.9994,26.8655 102.9994,27.3265 103.2834,27.6115 L108.9464,33.2755 C109.2304,33.5605 109.6914,33.5605 109.9754,33.2755 L112.1704,31.0805 C119.2744,23.9695 119.2744,12.4445 112.1704,5.3335" id="Fill-4" fill="#34C69A"></path>
                <path d="M100.1948,30.7002 C99.9108,30.4162 99.4498,30.4162 99.1658,30.7002 L84.8868,44.9822 C84.2458,45.6232 83.5288,46.1442 82.7648,46.5442 C79.4698,48.2702 75.2988,47.7502 72.5328,44.9822 C72.5218,44.9712 72.5078,44.9572 72.5008,44.9462 C69.1408,41.5492 69.1408,36.0542 72.5008,32.6572 L65.8108,25.9642 C60.2628,31.5352 59.0728,39.8082 62.2368,46.5442 C63.1058,48.4012 64.3108,50.1452 65.8428,51.6792 C67.7908,53.6262 70.0728,55.0392 72.5008,55.9202 C74.5018,56.6452 76.6058,57.0092 78.7098,57.0092 C83.3688,57.0092 88.0238,55.2322 91.5798,51.6792 L105.8578,37.3952 C106.1418,37.1112 106.1418,36.6502 105.8578,36.3652 L100.1948,30.7002 Z" id="Fill-6" fill="#34C69A"></path>
                <path d="M112.1699,58.9541 L98.2379,45.0171 L91.5469,51.7111 L105.4779,65.6481 C108.8519,69.0221 108.8829,74.4881 105.5809,77.9031 C102.1839,81.4141 96.4389,81.3221 92.9839,77.8671 L90.9279,75.8091 C90.6439,75.5251 90.1829,75.5251 89.8989,75.8091 L84.2359,81.4741 C83.9519,81.7581 83.9519,82.2201 84.2359,82.5041 L86.2049,84.4741 C93.3349,91.6051 105.1849,91.7901 112.2639,84.6071 C115.7549,81.0631 117.4999,76.4441 117.4999,71.8301 C117.4999,67.1701 115.7239,62.5101 112.1699,58.9541" id="Fill-8" fill="#F6C94A"></path>
                <path d="M86.8105,72.7202 C87.0945,72.4352 87.0945,71.9742 86.8105,71.6902 L72.5345,57.4092 C71.8935,56.7682 71.3715,56.0502 70.9725,55.2852 C69.2505,51.9922 69.7685,47.8182 72.5345,45.0512 L72.5685,45.0172 C75.9655,41.6552 81.4575,41.6552 84.8545,45.0172 L91.5465,38.3232 C85.9725,32.7772 77.7025,31.5852 70.9725,34.7492 C69.1145,35.6192 67.3765,36.8222 65.8435,38.3562 C63.8945,40.3052 62.4815,42.5842 61.6045,45.0172 C60.8755,47.0172 60.5135,49.1262 60.5135,51.2322 C60.5135,55.8922 62.2915,60.5502 65.8435,64.1032 L80.1185,78.3842 C80.4025,78.6692 80.8635,78.6692 81.1485,78.3842 L86.8105,72.7202 Z" id="Fill-10" fill="#F6C94A"></path>
                <path d="M83.4204,45.0532 C83.2314,44.5142 83.0124,43.9832 82.7654,43.4582 C81.8994,41.5972 80.6944,39.8572 79.1584,38.3242 C77.6334,36.7952 75.9004,35.5932 74.0514,34.7232 C73.5454,34.4832 73.0284,34.2722 72.5084,34.0822 C66.0844,31.7522 58.6194,33.1542 53.4584,38.2912 L60.1484,44.9842 C60.7814,44.3582 61.4874,43.8482 62.2374,43.4542 C65.5344,41.7322 69.7054,42.2532 72.4684,45.0162 L72.5014,45.0502 C75.2564,47.8352 75.7554,52.0302 73.9894,55.3212 C73.6044,56.0502 73.1084,56.7302 72.5014,57.3422 L79.1944,64.0382 C84.3054,58.8972 85.7174,51.4622 83.4204,45.0532" id="Fill-12" fill="#46AEE2"></path>
                <path d="M45.8208,59.3169 L53.4578,51.6769 L46.7678,44.9839 L39.1298,52.6239 C38.8448,52.9079 38.8448,53.3689 39.1298,53.6529 L44.7908,59.3169 C45.0748,59.6009 45.5358,59.6009 45.8208,59.3169" id="Fill-14" fill="#46AEE2"></path>
                <path d="M51.8784,77.9731 C48.4714,81.3811 42.9284,81.3811 39.5244,77.9731 C36.1184,74.5651 36.1184,69.0231 39.5244,65.6151 L41.7024,63.4361 C41.9864,63.1521 41.9864,62.6911 41.7024,62.4061 L36.0404,56.7421 C35.7564,56.4581 35.2954,56.4581 35.0114,56.7421 L32.8314,58.9221 C25.7224,66.0341 25.7224,77.5581 32.8314,84.6691 C36.3874,88.2231 41.0424,90.0041 45.6974,90.0001 C50.3574,90.0001 55.0154,88.2231 58.5714,84.6691 L72.5014,70.7311 L65.8114,64.0381 L51.8784,77.9731 Z" id="Fill-16" fill="#46AEE2"></path>
                <path d="M24.1201,114.0908 C23.8371,114.0908 23.5941,113.9008 23.5131,113.6298 C23.2851,112.8668 22.9951,112.1568 22.6411,111.4998 C22.2161,110.7128 21.6701,110.0308 21.0041,109.4538 C20.3371,108.8788 19.5571,108.4318 18.6621,108.1138 C17.7681,107.7958 16.7301,107.6358 15.5481,107.6358 C13.8211,107.6358 12.3281,107.9848 11.0701,108.6818 C9.8121,109.3798 8.7891,110.3108 8.0011,111.4768 C7.2131,112.6438 6.6301,113.9698 6.2511,115.4548 C5.8721,116.9398 5.6831,118.4548 5.6831,119.9998 C5.6831,121.5458 5.8721,123.0608 6.2511,124.5458 C6.6301,126.0298 7.2131,127.3568 8.0011,128.5228 C8.7891,129.6898 9.8121,130.6218 11.0701,131.3188 C12.3281,132.0158 13.8211,132.3638 15.5481,132.3638 C16.8211,132.3638 17.9421,132.1448 18.9121,131.7048 C19.8821,131.2658 20.7161,130.6588 21.4131,129.8858 C22.1101,129.1138 22.6561,128.2128 23.0501,127.1818 C23.3841,126.3088 23.6201,125.3798 23.7581,124.3968 C23.8011,124.0898 24.0701,123.8638 24.3801,123.8638 L28.6841,123.8638 C29.0611,123.8638 29.3501,124.1928 29.3121,124.5678 C29.1411,126.2348 28.7441,127.7728 28.1201,129.1818 C27.4071,130.7888 26.4441,132.1748 25.2321,133.3408 C24.0191,134.5078 22.5951,135.4088 20.9591,136.0458 C19.3221,136.6818 17.5181,136.9998 15.5481,136.9998 C13.1231,136.9998 10.9491,136.5528 9.0241,135.6588 C7.0991,134.7658 5.4701,133.5458 4.1371,131.9998 C2.8031,130.4548 1.7801,128.6518 1.0681,126.5908 C0.3561,124.5308 0.0001,122.3338 0.0001,119.9998 C0.0001,117.6968 0.3561,115.5158 1.0681,113.4548 C1.7801,111.3938 2.8031,109.5908 4.1371,108.0458 C5.4701,106.4998 7.0991,105.2728 9.0241,104.3638 C10.9491,103.4538 13.1231,102.9998 15.5481,102.9998 C17.3671,102.9998 19.0791,103.2498 20.6861,103.7498 C22.2921,104.2498 23.7091,104.9778 24.9361,105.9318 C26.1641,106.8858 27.1571,108.0458 27.9141,109.4088 C28.5651,110.5808 29.0041,111.8988 29.2301,113.3608 C29.2891,113.7438 28.9931,114.0908 28.6051,114.0908 L24.1201,114.0908 Z" id="Fill-18" fill="#3F3F3F"></path>
                <path d="M33.5762,103.7871 L37.5282,103.7871 C37.8792,103.7871 38.1642,104.0691 38.1642,104.4171 L38.1642,115.8221 L38.2562,115.8221 C38.8972,114.7631 39.8522,113.8771 41.1192,113.1651 C42.3872,112.4541 43.8012,112.0981 45.3582,112.0981 C47.9552,112.0981 50.0022,112.7641 51.4992,114.0961 C52.9952,115.4291 53.7442,117.4271 53.7442,120.0911 L53.7442,135.5831 C53.7442,135.9311 53.4602,136.2131 53.1092,136.2131 L49.1562,136.2131 C48.8052,136.2131 48.5202,135.9311 48.5202,135.5831 L48.5202,121.4541 C48.4592,119.6071 48.0622,118.2671 47.3292,117.4341 C46.5962,116.6011 45.4512,116.1851 43.8922,116.1851 C43.0062,116.1851 42.2122,116.3441 41.5102,116.6621 C40.8062,116.9801 40.2102,117.4191 39.7222,117.9791 C39.2332,118.5391 38.8522,119.1981 38.5762,119.9541 C38.3022,120.7111 38.1642,121.5141 38.1642,122.3611 L38.1642,135.5831 C38.1642,135.9311 37.8792,136.2131 37.5282,136.2131 L33.5762,136.2131 C33.2252,136.2131 32.9402,135.9311 32.9402,135.5831 L32.9402,104.4171 C32.9402,104.0691 33.2252,103.7871 33.5762,103.7871" id="Fill-20" fill="#3F3F3F"></path>
                <path d="M73.436,128.2847 C73.436,129.0957 73.239,129.7797 72.846,130.3347 C72.452,130.8907 71.961,131.3477 71.371,131.7087 C70.781,132.0697 70.152,132.3257 69.487,132.4747 C68.821,132.6257 68.2,132.7007 67.625,132.7007 C67.172,132.7007 66.665,132.6557 66.105,132.5647 C65.544,132.4747 65.031,132.3167 64.561,132.0917 C64.092,131.8667 63.691,131.5587 63.359,131.1687 C63.025,130.7787 62.86,130.2977 62.86,129.7267 C62.86,129.0657 62.973,128.5027 63.2,128.0367 C63.427,127.5717 63.737,127.1967 64.13,126.9097 C64.523,126.6257 64.977,126.3997 65.492,126.2347 C66.007,126.0697 66.536,125.9417 67.081,125.8517 C68.231,125.6417 69.38,125.4847 70.531,125.3787 C71.294,125.3087 71.978,125.1497 72.581,124.9017 C72.989,124.7327 73.436,125.0467 73.436,125.4847 L73.436,128.2847 Z M75.657,113.7987 C74.764,113.2577 73.423,112.8007 72.304,112.5597 C71.184,112.3197 70.364,112.1997 69.214,112.1997 C67.913,112.1997 66.642,112.3197 65.401,112.5597 C64.16,112.8007 63.048,113.2217 62.065,113.8217 C61.082,114.4227 60.272,115.2187 59.637,116.2097 C59.103,117.0417 58.761,118.0547 58.612,119.2477 C58.565,119.6197 58.861,119.9497 59.239,119.9497 L63.18,119.9497 C63.483,119.9497 63.737,119.7327 63.797,119.4377 C63.999,118.4327 64.504,117.6727 65.311,117.1557 C66.248,116.5557 67.444,116.2547 68.896,116.2547 C69.411,116.2547 69.956,116.2927 70.531,116.3677 C71.105,116.4427 71.627,116.5927 72.097,116.8177 C72.566,117.0427 72.959,117.3667 73.277,117.7857 C73.595,118.2077 73.754,118.7477 73.754,119.4087 C73.754,120.1597 73.564,120.7227 73.186,121.0977 C72.808,121.4737 72.293,121.7517 71.643,121.9317 C70.992,122.1117 70.243,122.2397 69.396,122.3147 C68.555,122.3897 67.668,122.5157 66.738,122.6937 C66.726,122.6967 66.713,122.6987 66.7,122.6997 C65.617,122.8197 64.54,122.9917 63.472,123.2157 C62.397,123.4417 61.43,123.8087 60.567,124.3197 C59.705,124.8307 59.008,125.5357 58.479,126.4377 C57.949,127.3387 57.685,128.5097 57.685,129.9517 C57.685,131.0937 57.904,132.0917 58.343,132.9477 C58.781,133.8047 59.372,134.5107 60.113,135.0657 C60.854,135.6217 61.709,136.0417 62.678,136.3267 C63.646,136.6127 64.66,136.7547 65.719,136.7547 C67.111,136.7547 68.557,136.5297 70.054,136.0787 C71.222,135.7287 72.247,135.2127 73.129,134.5337 C73.227,134.4587 73.339,134.4197 73.454,134.4087 L73.454,136.2287 C73.454,136.4367 73.745,136.6057 74.104,136.6057 L78.153,136.6057 C78.513,136.6057 78.804,136.4367 78.804,136.2287 L78.804,135.3557 L78.804,130.9427 L78.804,122.9237 L78.804,118.9577 C78.804,117.7267 78.405,116.8417 77.86,115.9857 C77.315,115.1297 76.549,114.3397 75.657,113.7987 Z" id="Fill-22" fill="#3F3F3F"></path>
                <path d="M88.5762,106.687 C88.5762,108.332 87.2352,109.665 85.5812,109.665 C83.9282,109.665 82.5872,108.332 82.5872,106.687 C82.5872,105.043 83.9282,103.71 85.5812,103.71 C87.2352,103.71 88.5762,105.043 88.5762,106.687 M83.5602,112.768 L87.4802,112.768 C87.8292,112.768 88.1112,113.048 88.1112,113.395 L88.1112,135.509 C88.1112,135.855 87.8292,136.136 87.4802,136.136 L83.5602,136.136 C83.2112,136.136 82.9292,135.855 82.9292,135.509 L82.9292,113.395 C82.9292,113.048 83.2112,112.768 83.5602,112.768" id="Fill-24" fill="#3F3F3F"></path>
                <path d="M92.6694,112.8271 L96.2914,112.8271 C96.6374,112.8271 96.9174,113.1071 96.9174,113.4521 L96.9174,116.2511 L97.0074,116.3421 C97.7904,115.0501 98.8134,114.0361 100.0764,113.3001 C101.3404,112.5641 102.7394,112.1961 104.2734,112.1961 C106.8304,112.1961 108.8464,112.8571 110.3214,114.1791 C111.7944,115.5011 112.5324,117.4831 112.5324,120.1261 L112.5324,135.4971 C112.5324,135.8421 112.2524,136.1221 111.9064,136.1221 L108.0144,136.1221 C107.6684,136.1221 107.3874,135.8421 107.3874,135.4971 L107.3874,121.4781 C107.3274,119.6461 106.9364,118.3171 106.2144,117.4901 C105.4924,116.6641 104.3644,116.2511 102.8294,116.2511 C101.9564,116.2511 101.1744,116.4091 100.4824,116.7241 C99.7904,117.0401 99.2034,117.4751 98.7224,118.0311 C98.2414,118.5871 97.8654,119.2411 97.5944,119.9911 C97.3234,120.7421 97.1884,121.5381 97.1884,122.3791 L97.1884,135.4971 C97.1884,135.8421 96.9074,136.1221 96.5624,136.1221 L92.6694,136.1221 C92.3234,136.1221 92.0434,135.8421 92.0434,135.4971 L92.0434,113.4521 C92.0434,113.1071 92.3234,112.8271 92.6694,112.8271" id="Fill-26" fill="#3F3F3F"></path>
                <g id="Group-30" transform="translate(116.000000, 103.000000)">
                    <mask id="mask-4" fill="white">
                        <use xlink:href="#path-3"></use>
                    </mask>
                    <g id="Clip-29"></g>
                    <path d="M1.7261,0.9014 L6.9731,0.9014 C7.1871,0.9014 7.3881,1.0104 7.5041,1.1904 L14.1821,11.5384 C14.4281,11.9204 14.9861,11.9254 15.2401,11.5484 L22.2201,1.1804 C22.3371,1.0054 22.5341,0.9014 22.7451,0.9014 L27.5891,0.9014 C28.0981,0.9014 28.3991,1.4694 28.1111,1.8874 L18.2761,16.1684 C18.1291,16.3824 18.1281,16.6654 18.2761,16.8804 L28.8891,32.3414 C29.1761,32.7594 28.8751,33.3274 28.3661,33.3274 L22.9781,33.3274 C22.7651,33.3274 22.5651,33.2194 22.4491,33.0414 L15.0461,21.7324 C14.7981,21.3524 14.2411,21.3504 13.9891,21.7274 L6.4561,33.0454 C6.3391,33.2214 6.1421,33.3274 5.9301,33.3274 L0.9491,33.3274 C0.4401,33.3274 0.1401,32.7594 0.4271,32.3414 L11.0391,16.8804 C11.1871,16.6654 11.1871,16.3824 11.0391,16.1684 L1.2051,1.8874 C0.9161,1.4694 1.2171,0.9014 1.7261,0.9014" id="Fill-28" fill="#F6C94A" mask="url(#mask-4)"></path>
                </g>
            </g>
        </g>
    </g>
</svg>